<?xml version="1.0" standalone="no"?>
<!DOCTYPE svg PUBLIC "-//W3C//DTD SVG 20010904//EN"
 "http://www.w3.org/TR/2001/REC-SVG-20010904/DTD/svg10.dtd">
<svg version="1.0" xmlns="http://www.w3.org/2000/svg"
 width="160.000000pt" height="160.000000pt" viewBox="0 0 160.000000 160.000000"
 preserveAspectRatio="xMidYMid meet">
<metadata>
Created by potrace 1.14, written by Peter Selinger 2001-2017
</metadata>
<g transform="translate(0.000000,160.000000) scale(0.100000,-0.100000)"
fill="#000000" stroke="none">
<path d="M428 1364 c-2 -1 -26 -5 -53 -9 -212 -24 -330 -149 -348 -365 -3 -29
13 -129 25 -157 6 -15 12 -30 13 -33 5 -21 56 -107 99 -168 52 -74 293 -319
338 -343 14 -8 43 -25 64 -39 89 -59 239 -110 322 -110 76 0 109 29 117 105 3
25 -16 64 -44 89 -27 25 -44 85 -29 103 15 19 58 16 96 -7 17 -11 32 -18 32
-15 0 2 42 -27 93 -65 139 -105 193 -127 266 -108 46 12 116 80 146 144 104
220 -178 653 -549 841 -97 49 -238 102 -321 119 -61 14 -259 27 -267 18z m676
-635 c43 -21 86 -73 86 -102 0 -22 -35 -36 -79 -30 -90 10 -169 110 -117 145
20 14 68 8 110 -13z"/>
</g>
</svg>
